<?xml version="1.0" encoding="utf-8" standalone="no"?>
<!DOCTYPE svg PUBLIC "-//W3C//DTD SVG 1.1//EN"
  "http://www.w3.org/Graphics/SVG/1.1/DTD/svg11.dtd">
<svg xmlns:xlink="http://www.w3.org/1999/xlink" width="468pt" height="324pt" viewBox="0 0 468 324" xmlns="http://www.w3.org/2000/svg" version="1.1">
 <metadata>
  <rdf:RDF xmlns:dc="http://purl.org/dc/elements/1.1/" xmlns:cc="http://creativecommons.org/ns#" xmlns:rdf="http://www.w3.org/1999/02/22-rdf-syntax-ns#">
   <cc:Work>
    <dc:type rdf:resource="http://purl.org/dc/dcmitype/StillImage"/>
    <dc:date>2025-10-14T22:24:13.223908</dc:date>
    <dc:format>image/svg+xml</dc:format>
    <dc:creator>
     <cc:Agent>
      <dc:title>Matplotlib v3.9.2, https://matplotlib.org/</dc:title>
     </cc:Agent>
    </dc:creator>
   </cc:Work>
  </rdf:RDF>
 </metadata>
 <defs>
  <style type="text/css">*{stroke-linejoin: round; stroke-linecap: butt}</style>
 </defs>
 <g id="figure_1">
  <g id="patch_1">
   <path d="M 0 324 
L 468 324 
L 468 0 
L 0 0 
z
" style="fill: #ffffff"/>
  </g>
  <g id="axes_1">
   <g id="patch_2">
    <path d="M 10.8 313.2 
L 457.2 313.2 
L 457.2 10.8 
L 10.8 10.8 
z
" style="fill: #ffffff"/>
   </g>
   <g id="matplotlib.axis_1">
    <g id="xtick_1"/>
    <g id="xtick_2"/>
    <g id="xtick_3"/>
    <g id="xtick_4"/>
    <g id="xtick_5"/>
    <g id="xtick_6"/>
   </g>
   <g id="matplotlib.axis_2">
    <g id="ytick_1"/>
    <g id="ytick_2"/>
    <g id="ytick_3"/>
    <g id="ytick_4"/>
    <g id="ytick_5"/>
    <g id="ytick_6"/>
   </g>
   <g id="line2d_1">
    <path d="M 10.8 188.068966 
L 17.824893 196.112393 
L 24.849785 203.833028 
L 31.874678 211.230869 
L 38.899571 218.305916 
L 45.924464 225.05817 
L 52.949356 231.48763 
L 59.974249 237.594296 
L 66.360515 242.865702 
L 72.746781 247.870335 
L 79.133047 252.608197 
L 85.519313 257.079288 
L 91.905579 261.283607 
L 98.291845 265.221154 
L 104.678112 268.89193 
L 111.064378 272.295935 
L 117.450644 275.433168 
L 123.83691 278.303629 
L 130.223176 280.907319 
L 135.970815 283.02255 
L 141.718455 284.921697 
L 147.466094 286.604758 
L 153.213734 288.071735 
L 158.961373 289.322626 
L 164.709013 290.357433 
L 170.456652 291.176155 
L 176.204292 291.778792 
L 181.951931 292.165344 
L 187.699571 292.335811 
L 193.44721 292.290193 
L 199.19485 292.02849 
L 204.942489 291.550702 
L 210.690129 290.856829 
L 216.437768 289.946872 
L 222.185408 288.820829 
L 227.933047 287.478702 
L 233.680687 285.920489 
L 239.428326 284.146192 
L 245.175966 282.15581 
L 250.923605 279.949343 
L 256.671245 277.526791 
L 263.057511 274.581633 
L 269.443777 271.369704 
L 275.830043 267.891004 
L 282.216309 264.145531 
L 288.602575 260.133288 
L 294.988841 255.854273 
L 301.375107 251.308486 
L 307.761373 246.495928 
L 314.147639 241.416599 
L 320.533906 236.070498 
L 326.920172 230.457625 
L 333.945064 223.975344 
L 340.969957 217.170269 
L 347.99485 210.042401 
L 355.019742 202.59174 
L 362.044635 194.818285 
L 369.069528 186.722036 
L 376.094421 178.302994 
L 383.119313 169.561158 
L 390.782833 159.656466 
L 398.446352 149.367622 
L 406.109871 138.694627 
L 413.773391 127.637482 
L 421.43691 116.196185 
L 429.100429 104.370737 
L 436.763948 92.161139 
L 445.066094 78.50057 
L 453.36824 64.389157 
L 457.2 57.724138 
L 457.2 57.724138 
" clip-path="url(#p3d4b1d055c)" style="fill: none; stroke: #1f77b4; stroke-width: 2; stroke-linecap: square"/>
   </g>
   <g id="line2d_2">
    <path d="M 10.8 31.655172 
L 19.102146 45.974667 
L 27.404292 59.843317 
L 35.706438 73.261124 
L 44.008584 86.228087 
L 51.672103 97.797434 
L 59.335622 108.98263 
L 66.999142 119.783675 
L 74.662661 130.200569 
L 82.32618 140.233312 
L 89.9897 149.881904 
L 97.653219 159.146345 
L 104.678112 167.301283 
L 111.703004 175.133428 
L 118.727897 182.64278 
L 125.75279 189.829337 
L 132.777682 196.693102 
L 139.802575 203.234072 
L 146.827468 209.452249 
L 153.213734 214.825028 
L 159.6 219.931034 
L 165.986266 224.77027 
L 172.372532 229.342733 
L 178.758798 233.648426 
L 185.145064 237.687346 
L 191.53133 241.459496 
L 197.917597 244.964873 
L 204.303863 248.203479 
L 210.690129 251.175314 
L 217.076395 253.880377 
L 222.824034 256.086844 
L 228.571674 258.077227 
L 234.319313 259.851524 
L 240.066953 261.409736 
L 245.814592 262.751864 
L 251.562232 263.877906 
L 257.309871 264.787864 
L 263.057511 265.481737 
L 268.80515 265.959524 
L 274.55279 266.221227 
L 280.300429 266.266845 
L 286.048069 266.096378 
L 291.795708 265.709826 
L 297.543348 265.107189 
L 303.290987 264.288468 
L 309.038627 263.253661 
L 314.786266 262.002769 
L 320.533906 260.535793 
L 326.281545 258.852731 
L 332.029185 256.953585 
L 337.776824 254.838354 
L 343.524464 252.507037 
L 349.91073 249.663253 
L 356.296996 246.552697 
L 362.683262 243.17537 
L 369.069528 239.531271 
L 375.455794 235.620401 
L 381.84206 231.442759 
L 388.228326 226.998345 
L 394.614592 222.28716 
L 401.000858 217.309204 
L 407.387124 212.064476 
L 413.773391 206.552977 
L 420.798283 200.182206 
L 427.823176 193.488642 
L 434.848069 186.472285 
L 441.872961 179.133134 
L 448.897854 171.471189 
L 455.922747 163.486451 
L 457.2 162 
L 457.2 162 
" clip-path="url(#p3d4b1d055c)" style="fill: none; stroke: #ff7f0e; stroke-width: 2; stroke-linecap: square"/>
   </g>
   <g id="line2d_3">
    <path d="M 10.8 31.655172 
L 19.102146 45.974667 
L 27.404292 59.843317 
L 35.706438 73.261124 
L 44.008584 86.228087 
L 51.672103 97.797434 
L 59.335622 108.98263 
L 66.999142 119.783675 
L 74.662661 130.200569 
L 82.32618 140.233312 
L 89.9897 149.881904 
L 97.653219 159.146345 
L 104.678112 167.301283 
L 111.703004 175.133428 
L 118.727897 182.64278 
L 125.75279 189.829337 
L 132.777682 196.693102 
L 139.802575 203.234072 
L 146.827468 209.452249 
L 153.213734 214.825028 
L 159.6 219.931034 
L 165.986266 224.77027 
L 172.372532 229.342733 
L 178.758798 233.648426 
L 185.145064 237.687346 
L 191.53133 241.459496 
L 197.917597 244.964873 
L 204.303863 248.203479 
L 210.690129 251.175314 
L 217.076395 253.880377 
L 222.824034 256.086844 
L 228.571674 258.077227 
L 234.319313 259.851524 
L 240.066953 261.409736 
L 245.814592 262.751864 
L 251.562232 263.877906 
L 257.309871 264.787864 
L 263.057511 265.481737 
L 268.80515 265.959524 
L 274.55279 266.221227 
L 278.384549 266.275649 
L 279.023176 266.051614 
L 285.409442 262.172756 
L 291.795708 258.027127 
L 298.181974 253.614726 
L 304.56824 248.935554 
L 310.954506 243.98961 
L 317.340773 238.776895 
L 323.727039 233.297408 
L 330.751931 226.961851 
L 337.776824 220.303501 
L 344.801717 213.322357 
L 351.826609 206.01842 
L 358.851502 198.391689 
L 365.876395 190.442165 
L 372.901288 182.169847 
L 379.92618 173.574736 
L 387.5897 163.830106 
L 395.253219 153.701325 
L 402.916738 143.188393 
L 410.580258 132.291311 
L 418.243777 121.010077 
L 425.907296 109.344692 
L 433.570815 97.295157 
L 441.872961 83.807989 
L 450.175107 69.869978 
L 457.2 57.724138 
L 457.2 57.724138 
" clip-path="url(#p3d4b1d055c)" style="fill: none; stroke: #2ca02c; stroke-width: 2.5; stroke-linecap: square"/>
   </g>
   <g id="line2d_4">
    <path d="M 10.8 292.344828 
L 457.2 292.344828 
" style="fill: none; stroke: #000000; stroke-width: 1.5; stroke-linecap: square"/>
   </g>
   <g id="line2d_5">
    <path d="M 189.36 313.2 
L 189.36 10.8 
" style="fill: none; stroke: #000000; stroke-width: 1.5; stroke-linecap: square"/>
   </g>
   <g id="legend_1">
    <g id="line2d_6">
     <path d="M 23.76 31.824 
L 38.16 31.824 
L 52.56 31.824 
" style="fill: none; stroke: #1f77b4; stroke-width: 2; stroke-linecap: square"/>
    </g>
    <g id="text_1">
     <!-- $f_1(x)=x^{2}$ -->
     <g transform="translate(64.08 36.864) scale(0.144 -0.144)">
      <defs>
       <path id="DejaVuSans-Oblique-66" d="M 3059 4863 
L 2969 4384 
L 2419 4384 
Q 2106 4384 1964 4261 
Q 1822 4138 1753 3809 
L 1691 3500 
L 2638 3500 
L 2553 3053 
L 1606 3053 
L 1013 0 
L 434 0 
L 1031 3053 
L 481 3053 
L 563 3500 
L 1113 3500 
L 1159 3744 
Q 1278 4363 1576 4613 
Q 1875 4863 2516 4863 
L 3059 4863 
z
" transform="scale(0.015625)"/>
       <path id="DejaVuSans-31" d="M 794 531 
L 1825 531 
L 1825 4091 
L 703 3866 
L 703 4441 
L 1819 4666 
L 2450 4666 
L 2450 531 
L 3481 531 
L 3481 0 
L 794 0 
L 794 531 
z
" transform="scale(0.015625)"/>
       <path id="DejaVuSans-28" d="M 1984 4856 
Q 1566 4138 1362 3434 
Q 1159 2731 1159 2009 
Q 1159 1288 1364 580 
Q 1569 -128 1984 -844 
L 1484 -844 
Q 1016 -109 783 600 
Q 550 1309 550 2009 
Q 550 2706 781 3412 
Q 1013 4119 1484 4856 
L 1984 4856 
z
" transform="scale(0.015625)"/>
       <path id="DejaVuSans-Oblique-78" d="M 3841 3500 
L 2234 1784 
L 3219 0 
L 2559 0 
L 1819 1388 
L 531 0 
L -166 0 
L 1556 1844 
L 641 3500 
L 1300 3500 
L 1972 2234 
L 3144 3500 
L 3841 3500 
z
" transform="scale(0.015625)"/>
       <path id="DejaVuSans-29" d="M 513 4856 
L 1013 4856 
Q 1481 4119 1714 3412 
Q 1947 2706 1947 2009 
Q 1947 1309 1714 600 
Q 1481 -109 1013 -844 
L 513 -844 
Q 928 -128 1133 580 
Q 1338 1288 1338 2009 
Q 1338 2731 1133 3434 
Q 928 4138 513 4856 
z
" transform="scale(0.015625)"/>
       <path id="DejaVuSans-3d" d="M 678 2906 
L 4684 2906 
L 4684 2381 
L 678 2381 
L 678 2906 
z
M 678 1631 
L 4684 1631 
L 4684 1100 
L 678 1100 
L 678 1631 
z
" transform="scale(0.015625)"/>
       <path id="DejaVuSans-32" d="M 1228 531 
L 3431 531 
L 3431 0 
L 469 0 
L 469 531 
Q 828 903 1448 1529 
Q 2069 2156 2228 2338 
Q 2531 2678 2651 2914 
Q 2772 3150 2772 3378 
Q 2772 3750 2511 3984 
Q 2250 4219 1831 4219 
Q 1534 4219 1204 4116 
Q 875 4013 500 3803 
L 500 4441 
Q 881 4594 1212 4672 
Q 1544 4750 1819 4750 
Q 2544 4750 2975 4387 
Q 3406 4025 3406 3419 
Q 3406 3131 3298 2873 
Q 3191 2616 2906 2266 
Q 2828 2175 2409 1742 
Q 1991 1309 1228 531 
z
" transform="scale(0.015625)"/>
      </defs>
      <use xlink:href="#DejaVuSans-Oblique-66" transform="translate(0 0.765625)"/>
      <use xlink:href="#DejaVuSans-31" transform="translate(35.205078 -15.640625) scale(0.7)"/>
      <use xlink:href="#DejaVuSans-28" transform="translate(82.475586 0.765625)"/>
      <use xlink:href="#DejaVuSans-Oblique-78" transform="translate(121.489258 0.765625)"/>
      <use xlink:href="#DejaVuSans-29" transform="translate(180.668945 0.765625)"/>
      <use xlink:href="#DejaVuSans-3d" transform="translate(239.165039 0.765625)"/>
      <use xlink:href="#DejaVuSans-Oblique-78" transform="translate(342.436523 0.765625)"/>
      <use xlink:href="#DejaVuSans-32" transform="translate(406.082357 39.046875) scale(0.7)"/>
     </g>
    </g>
    <g id="line2d_7">
     <path d="M 23.76 54.576 
L 38.16 54.576 
L 52.56 54.576 
" style="fill: none; stroke: #ff7f0e; stroke-width: 2; stroke-linecap: square"/>
    </g>
    <g id="text_2">
     <!-- $f_2(x)=(x-1)^{2}+1$ -->
     <g transform="translate(64.08 59.616) scale(0.144 -0.144)">
      <defs>
       <path id="DejaVuSans-2212" d="M 678 2272 
L 4684 2272 
L 4684 1741 
L 678 1741 
L 678 2272 
z
" transform="scale(0.015625)"/>
       <path id="DejaVuSans-2b" d="M 2944 4013 
L 2944 2272 
L 4684 2272 
L 4684 1741 
L 2944 1741 
L 2944 0 
L 2419 0 
L 2419 1741 
L 678 1741 
L 678 2272 
L 2419 2272 
L 2419 4013 
L 2944 4013 
z
" transform="scale(0.015625)"/>
      </defs>
      <use xlink:href="#DejaVuSans-Oblique-66" transform="translate(0 0.765625)"/>
      <use xlink:href="#DejaVuSans-32" transform="translate(35.205078 -15.640625) scale(0.7)"/>
      <use xlink:href="#DejaVuSans-28" transform="translate(82.475586 0.765625)"/>
      <use xlink:href="#DejaVuSans-Oblique-78" transform="translate(121.489258 0.765625)"/>
      <use xlink:href="#DejaVuSans-29" transform="translate(180.668945 0.765625)"/>
      <use xlink:href="#DejaVuSans-3d" transform="translate(239.165039 0.765625)"/>
      <use xlink:href="#DejaVuSans-28" transform="translate(342.436523 0.765625)"/>
      <use xlink:href="#DejaVuSans-Oblique-78" transform="translate(381.450195 0.765625)"/>
      <use xlink:href="#DejaVuSans-2212" transform="translate(460.112305 0.765625)"/>
      <use xlink:href="#DejaVuSans-31" transform="translate(563.383789 0.765625)"/>
      <use xlink:href="#DejaVuSans-29" transform="translate(627.006836 0.765625)"/>
      <use xlink:href="#DejaVuSans-32" transform="translate(666.977539 39.046875) scale(0.7)"/>
      <use xlink:href="#DejaVuSans-2b" transform="translate(733.730469 0.765625)"/>
      <use xlink:href="#DejaVuSans-31" transform="translate(837.001953 0.765625)"/>
     </g>
    </g>
    <g id="line2d_8">
     <path d="M 23.76 75.168 
L 38.16 75.168 
L 52.56 75.168 
" style="fill: none; stroke: #2ca02c; stroke-width: 2.5; stroke-linecap: square"/>
    </g>
    <g id="text_3">
     <!-- $h(x)=\max\{f_1(x),f_2(x)\}$ -->
     <g transform="translate(64.08 80.208) scale(0.144 -0.144)">
      <defs>
       <path id="DejaVuSans-Oblique-68" d="M 3566 2113 
L 3156 0 
L 2578 0 
L 2988 2091 
Q 3016 2238 3031 2350 
Q 3047 2463 3047 2528 
Q 3047 2791 2881 2937 
Q 2716 3084 2419 3084 
Q 1956 3084 1617 2771 
Q 1278 2459 1178 1941 
L 800 0 
L 225 0 
L 1172 4863 
L 1747 4863 
L 1375 2950 
Q 1594 3244 1934 3414 
Q 2275 3584 2650 3584 
Q 3113 3584 3367 3334 
Q 3622 3084 3622 2631 
Q 3622 2519 3608 2391 
Q 3594 2263 3566 2113 
z
" transform="scale(0.015625)"/>
       <path id="DejaVuSans-6d" d="M 3328 2828 
Q 3544 3216 3844 3400 
Q 4144 3584 4550 3584 
Q 5097 3584 5394 3201 
Q 5691 2819 5691 2113 
L 5691 0 
L 5113 0 
L 5113 2094 
Q 5113 2597 4934 2840 
Q 4756 3084 4391 3084 
Q 3944 3084 3684 2787 
Q 3425 2491 3425 1978 
L 3425 0 
L 2847 0 
L 2847 2094 
Q 2847 2600 2669 2842 
Q 2491 3084 2119 3084 
Q 1678 3084 1418 2786 
Q 1159 2488 1159 1978 
L 1159 0 
L 581 0 
L 581 3500 
L 1159 3500 
L 1159 2956 
Q 1356 3278 1631 3431 
Q 1906 3584 2284 3584 
Q 2666 3584 2933 3390 
Q 3200 3197 3328 2828 
z
" transform="scale(0.015625)"/>
       <path id="DejaVuSans-61" d="M 2194 1759 
Q 1497 1759 1228 1600 
Q 959 1441 959 1056 
Q 959 750 1161 570 
Q 1363 391 1709 391 
Q 2188 391 2477 730 
Q 2766 1069 2766 1631 
L 2766 1759 
L 2194 1759 
z
M 3341 1997 
L 3341 0 
L 2766 0 
L 2766 531 
Q 2569 213 2275 61 
Q 1981 -91 1556 -91 
Q 1019 -91 701 211 
Q 384 513 384 1019 
Q 384 1609 779 1909 
Q 1175 2209 1959 2209 
L 2766 2209 
L 2766 2266 
Q 2766 2663 2505 2880 
Q 2244 3097 1772 3097 
Q 1472 3097 1187 3025 
Q 903 2953 641 2809 
L 641 3341 
Q 956 3463 1253 3523 
Q 1550 3584 1831 3584 
Q 2591 3584 2966 3190 
Q 3341 2797 3341 1997 
z
" transform="scale(0.015625)"/>
       <path id="DejaVuSans-78" d="M 3513 3500 
L 2247 1797 
L 3578 0 
L 2900 0 
L 1881 1375 
L 863 0 
L 184 0 
L 1544 1831 
L 300 3500 
L 978 3500 
L 1906 2253 
L 2834 3500 
L 3513 3500 
z
" transform="scale(0.015625)"/>
       <path id="DejaVuSans-7b" d="M 3272 -594 
L 3272 -1044 
L 3078 -1044 
Q 2300 -1044 2036 -812 
Q 1772 -581 1772 109 
L 1772 856 
Q 1772 1328 1603 1509 
Q 1434 1691 991 1691 
L 800 1691 
L 800 2138 
L 991 2138 
Q 1438 2138 1605 2317 
Q 1772 2497 1772 2963 
L 1772 3713 
Q 1772 4403 2036 4633 
Q 2300 4863 3078 4863 
L 3272 4863 
L 3272 4416 
L 3059 4416 
Q 2619 4416 2484 4278 
Q 2350 4141 2350 3700 
L 2350 2925 
Q 2350 2434 2208 2212 
Q 2066 1991 1722 1913 
Q 2069 1828 2209 1606 
Q 2350 1384 2350 897 
L 2350 122 
Q 2350 -319 2484 -456 
Q 2619 -594 3059 -594 
L 3272 -594 
z
" transform="scale(0.015625)"/>
       <path id="DejaVuSans-2c" d="M 750 794 
L 1409 794 
L 1409 256 
L 897 -744 
L 494 -744 
L 750 256 
L 750 794 
z
" transform="scale(0.015625)"/>
       <path id="DejaVuSans-7d" d="M 800 -594 
L 1019 -594 
Q 1456 -594 1589 -459 
Q 1722 -325 1722 122 
L 1722 897 
Q 1722 1384 1862 1606 
Q 2003 1828 2350 1913 
Q 2003 1991 1862 2212 
Q 1722 2434 1722 2925 
L 1722 3700 
Q 1722 4144 1589 4280 
Q 1456 4416 1019 4416 
L 800 4416 
L 800 4863 
L 997 4863 
Q 1775 4863 2036 4633 
Q 2297 4403 2297 3713 
L 2297 2963 
Q 2297 2497 2465 2317 
Q 2634 2138 3078 2138 
L 3272 2138 
L 3272 1691 
L 3078 1691 
Q 2634 1691 2465 1509 
Q 2297 1328 2297 856 
L 2297 109 
Q 2297 -581 2036 -812 
Q 1775 -1044 997 -1044 
L 800 -1044 
L 800 -594 
z
" transform="scale(0.015625)"/>
      </defs>
      <use xlink:href="#DejaVuSans-Oblique-68" transform="translate(0 0.015625)"/>
      <use xlink:href="#DejaVuSans-28" transform="translate(63.378906 0.015625)"/>
      <use xlink:href="#DejaVuSans-Oblique-78" transform="translate(102.392578 0.015625)"/>
      <use xlink:href="#DejaVuSans-29" transform="translate(161.572266 0.015625)"/>
      <use xlink:href="#DejaVuSans-3d" transform="translate(220.068359 0.015625)"/>
      <use xlink:href="#DejaVuSans-6d" transform="translate(323.339844 0.015625)"/>
      <use xlink:href="#DejaVuSans-61" transform="translate(420.751953 0.015625)"/>
      <use xlink:href="#DejaVuSans-78" transform="translate(482.03125 0.015625)"/>
      <use xlink:href="#DejaVuSans-7b" transform="translate(541.210938 0.015625)"/>
      <use xlink:href="#DejaVuSans-Oblique-66" transform="translate(604.833984 0.015625)"/>
      <use xlink:href="#DejaVuSans-31" transform="translate(640.039062 -16.390625) scale(0.7)"/>
      <use xlink:href="#DejaVuSans-28" transform="translate(687.30957 0.015625)"/>
      <use xlink:href="#DejaVuSans-Oblique-78" transform="translate(726.323242 0.015625)"/>
      <use xlink:href="#DejaVuSans-29" transform="translate(785.50293 0.015625)"/>
      <use xlink:href="#DejaVuSans-2c" transform="translate(824.516602 0.015625)"/>
      <use xlink:href="#DejaVuSans-Oblique-66" transform="translate(875.786133 0.015625)"/>
      <use xlink:href="#DejaVuSans-32" transform="translate(910.991211 -16.390625) scale(0.7)"/>
      <use xlink:href="#DejaVuSans-28" transform="translate(958.261719 0.015625)"/>
      <use xlink:href="#DejaVuSans-Oblique-78" transform="translate(997.275391 0.015625)"/>
      <use xlink:href="#DejaVuSans-29" transform="translate(1056.455078 0.015625)"/>
      <use xlink:href="#DejaVuSans-7d" transform="translate(1095.46875 0.015625)"/>
     </g>
    </g>
   </g>
  </g>
 </g>
 <defs>
  <clipPath id="p3d4b1d055c">
   <rect x="10.8" y="10.8" width="446.4" height="302.4"/>
  </clipPath>
 </defs>
</svg>
