<?xml version="1.0" encoding="utf-8" standalone="no"?>
<!DOCTYPE svg PUBLIC "-//W3C//DTD SVG 1.1//EN"
  "http://www.w3.org/Graphics/SVG/1.1/DTD/svg11.dtd">
<svg xmlns:xlink="http://www.w3.org/1999/xlink" width="468pt" height="324pt" viewBox="0 0 468 324" xmlns="http://www.w3.org/2000/svg" version="1.1">
 <metadata>
  <rdf:RDF xmlns:dc="http://purl.org/dc/elements/1.1/" xmlns:cc="http://creativecommons.org/ns#" xmlns:rdf="http://www.w3.org/1999/02/22-rdf-syntax-ns#">
   <cc:Work>
    <dc:type rdf:resource="http://purl.org/dc/dcmitype/StillImage"/>
    <dc:date>2025-10-13T22:49:22.476698</dc:date>
    <dc:format>image/svg+xml</dc:format>
    <dc:creator>
     <cc:Agent>
      <dc:title>Matplotlib v3.9.2, https://matplotlib.org/</dc:title>
     </cc:Agent>
    </dc:creator>
   </cc:Work>
  </rdf:RDF>
 </metadata>
 <defs>
  <style type="text/css">*{stroke-linejoin: round; stroke-linecap: butt}</style>
 </defs>
 <g id="figure_1">
  <g id="patch_1">
   <path d="M 0 324 
L 468 324 
L 468 0 
L 0 0 
z
" style="fill: #ffffff"/>
  </g>
  <g id="axes_1">
   <g id="patch_2">
    <path d="M 10.8 313.2 
L 457.2 313.2 
L 457.2 10.8 
L 10.8 10.8 
z
" style="fill: #ffffff"/>
   </g>
   <g id="matplotlib.axis_1">
    <g id="xtick_1"/>
    <g id="xtick_2"/>
    <g id="xtick_3"/>
    <g id="xtick_4"/>
    <g id="xtick_5"/>
   </g>
   <g id="matplotlib.axis_2">
    <g id="ytick_1"/>
    <g id="ytick_2"/>
    <g id="ytick_3"/>
    <g id="ytick_4"/>
    <g id="ytick_5"/>
    <g id="ytick_6"/>
    <g id="ytick_7"/>
    <g id="ytick_8"/>
   </g>
   <g id="line2d_1">
    <path d="M 10.8 20.88 
L 18.252421 37.427111 
L 25.704841 53.412351 
L 33.157262 68.835719 
L 39.864441 82.236351 
L 46.571619 95.181866 
L 53.278798 107.672266 
L 59.985977 119.707551 
L 66.693155 131.287719 
L 73.400334 142.412772 
L 80.107513 153.082708 
L 86.814691 163.297529 
L 92.776628 171.995298 
L 98.738564 180.333469 
L 104.700501 188.312042 
L 110.662437 195.931017 
L 116.624374 203.190395 
L 122.586311 210.090175 
L 128.548247 216.630357 
L 134.510184 222.810942 
L 140.47212 228.631929 
L 145.688815 233.430311 
L 150.905509 237.953375 
L 156.122204 242.201122 
L 161.338898 246.173553 
L 166.555593 249.870666 
L 171.772287 253.292463 
L 176.988982 256.438942 
L 182.205676 259.310105 
L 187.422371 261.90595 
L 192.639065 264.226479 
L 197.85576 266.271691 
L 203.072454 268.041585 
L 207.543907 269.339508 
L 212.015359 270.435157 
L 216.486811 271.328533 
L 220.958264 272.019635 
L 225.429716 272.508463 
L 229.901169 272.795017 
L 234.372621 272.879298 
L 238.844073 272.761305 
L 243.315526 272.441038 
L 247.786978 271.918498 
L 252.258431 271.193684 
L 256.729883 270.266596 
L 261.201336 269.137235 
L 265.672788 267.805599 
L 270.14424 266.271691 
L 275.360935 264.226479 
L 280.577629 261.90595 
L 285.794324 259.310105 
L 291.011018 256.438942 
L 296.227713 253.292463 
L 301.444407 249.870666 
L 306.661102 246.173553 
L 311.877796 242.201122 
L 317.094491 237.953375 
L 322.311185 233.430311 
L 327.52788 228.631929 
L 332.744574 223.558231 
L 338.706511 217.422596 
L 344.668447 210.927363 
L 350.630384 204.072533 
L 356.592321 196.858105 
L 362.554257 189.284079 
L 368.516194 181.350456 
L 374.47813 173.057235 
L 380.440067 164.404416 
L 386.402003 155.392 
L 393.109182 144.8232 
L 399.816361 133.799284 
L 406.523539 122.320252 
L 413.230718 110.386105 
L 419.937896 97.996842 
L 426.645075 85.152463 
L 433.352254 71.852968 
L 440.059432 58.098358 
L 447.511853 42.281679 
L 454.964274 25.90313 
L 457.2 20.88 
L 457.2 20.88 
" clip-path="url(#p8d77880510)" style="fill: none; stroke: #0000ff; stroke-width: 2; stroke-linecap: square"/>
   </g>
   <g id="line2d_2">
    <path d="M 73.296 142.2432 
L 323.28 232.56 
" clip-path="url(#p8d77880510)" style="fill: none; stroke: #dd6b20; stroke-width: 2; stroke-linecap: square"/>
   </g>
   <g id="line2d_3">
    <path d="M 164.61019 325 
L 457.2 166.4352 
L 457.2 166.4352 
" clip-path="url(#p8d77880510)" style="fill: none; stroke-dasharray: 7.4,3.2; stroke-dashoffset: 0; stroke: #2ca02c; stroke-width: 2"/>
   </g>
   <g id="PathCollection_1">
    <defs>
     <path id="m40607ef199" d="M 0 3.162278 
C 0.838646 3.162278 1.643056 2.82908 2.236068 2.236068 
C 2.82908 1.643056 3.162278 0.838646 3.162278 0 
C 3.162278 -0.838646 2.82908 -1.643056 2.236068 -2.236068 
C 1.643056 -2.82908 0.838646 -3.162278 0 -3.162278 
C -0.838646 -3.162278 -1.643056 -2.82908 -2.236068 -2.236068 
C -2.82908 -1.643056 -3.162278 -0.838646 -3.162278 0 
C -3.162278 0.838646 -2.82908 1.643056 -2.236068 2.236068 
C -1.643056 2.82908 -0.838646 3.162278 0 3.162278 
z
" style="stroke: #dd6b20"/>
    </defs>
    <g clip-path="url(#p8d77880510)">
     <use xlink:href="#m40607ef199" x="73.296" y="142.2432" style="fill: #dd6b20; stroke: #dd6b20"/>
     <use xlink:href="#m40607ef199" x="323.28" y="232.56" style="fill: #dd6b20; stroke: #dd6b20"/>
    </g>
   </g>
   <g id="PathCollection_2">
    <g clip-path="url(#p8d77880510)">
     <use xlink:href="#m40607ef199" x="198.288" y="266.4288" style="fill: #dd6b20; stroke: #dd6b20"/>
    </g>
   </g>
   <g id="PathCollection_3">
    <g clip-path="url(#p8d77880510)">
     <use xlink:href="#m40607ef199" x="198.288" y="187.4016" style="fill: #dd6b20; stroke: #dd6b20"/>
    </g>
   </g>
   <g id="PathCollection_4">
    <defs>
     <path id="m11e7c9020f" d="M 0 3.162278 
C 0.838646 3.162278 1.643056 2.82908 2.236068 2.236068 
C 2.82908 1.643056 3.162278 0.838646 3.162278 0 
C 3.162278 -0.838646 2.82908 -1.643056 2.236068 -2.236068 
C 1.643056 -2.82908 0.838646 -3.162278 0 -3.162278 
C -0.838646 -3.162278 -1.643056 -2.82908 -2.236068 -2.236068 
C -2.82908 -1.643056 -3.162278 -0.838646 -3.162278 0 
C -3.162278 0.838646 -2.82908 1.643056 -2.236068 2.236068 
C -1.643056 2.82908 -0.838646 3.162278 0 3.162278 
z
" style="stroke: #2ca02c"/>
    </defs>
    <g clip-path="url(#p8d77880510)">
     <use xlink:href="#m11e7c9020f" x="287.568" y="258.3648" style="fill: #2ca02c; stroke: #2ca02c"/>
    </g>
   </g>
   <g id="line2d_4">
    <path d="M 10.8 272.88 
L 457.2 272.88 
" style="fill: none; stroke: #000000; stroke-width: 1.5; stroke-linecap: square"/>
   </g>
   <g id="line2d_5">
    <path d="M 234 313.2 
L 234 10.8 
" style="fill: none; stroke: #000000; stroke-width: 1.5; stroke-linecap: square"/>
   </g>
  </g>
 </g>
 <defs>
  <clipPath id="p8d77880510">
   <rect x="10.8" y="10.8" width="446.4" height="302.4"/>
  </clipPath>
 </defs>
</svg>
