<?xml version="1.0" encoding="utf-8" standalone="no"?>
<!DOCTYPE svg PUBLIC "-//W3C//DTD SVG 1.1//EN"
  "http://www.w3.org/Graphics/SVG/1.1/DTD/svg11.dtd">
<svg xmlns:xlink="http://www.w3.org/1999/xlink" width="468pt" height="324pt" viewBox="0 0 468 324" xmlns="http://www.w3.org/2000/svg" version="1.1">
 <metadata>
  <rdf:RDF xmlns:dc="http://purl.org/dc/elements/1.1/" xmlns:cc="http://creativecommons.org/ns#" xmlns:rdf="http://www.w3.org/1999/02/22-rdf-syntax-ns#">
   <cc:Work>
    <dc:type rdf:resource="http://purl.org/dc/dcmitype/StillImage"/>
    <dc:date>2025-10-14T22:20:48.948315</dc:date>
    <dc:format>image/svg+xml</dc:format>
    <dc:creator>
     <cc:Agent>
      <dc:title>Matplotlib v3.9.2, https://matplotlib.org/</dc:title>
     </cc:Agent>
    </dc:creator>
   </cc:Work>
  </rdf:RDF>
 </metadata>
 <defs>
  <style type="text/css">*{stroke-linejoin: round; stroke-linecap: butt}</style>
 </defs>
 <g id="figure_1">
  <g id="patch_1">
   <path d="M 0 324 
L 468 324 
L 468 0 
L 0 0 
z
" style="fill: #ffffff"/>
  </g>
  <g id="axes_1">
   <g id="patch_2">
    <path d="M 10.8 313.2 
L 457.2 313.2 
L 457.2 10.8 
L 10.8 10.8 
z
" style="fill: #ffffff"/>
   </g>
   <g id="matplotlib.axis_1">
    <g id="xtick_1"/>
    <g id="xtick_2"/>
    <g id="xtick_3"/>
    <g id="xtick_4"/>
    <g id="xtick_5"/>
    <g id="xtick_6"/>
    <g id="xtick_7"/>
   </g>
   <g id="matplotlib.axis_2">
    <g id="ytick_1"/>
    <g id="ytick_2"/>
    <g id="ytick_3"/>
    <g id="ytick_4"/>
    <g id="ytick_5"/>
    <g id="ytick_6"/>
    <g id="ytick_7"/>
    <g id="ytick_8"/>
    <g id="ytick_9"/>
   </g>
   <g id="line2d_1">
    <path d="M 23.433962 164.286624 
L 32.573724 173.510927 
L 41.713485 182.409261 
L 50.853246 190.981626 
L 59.993007 199.228022 
L 68.42971 206.550757 
L 76.866413 213.595744 
L 85.303115 220.362982 
L 93.739818 226.852471 
L 102.176521 233.06421 
L 110.613223 238.998201 
L 119.049926 244.654443 
L 127.486629 250.032936 
L 135.923331 255.13368 
L 144.360034 259.956675 
L 152.093678 264.133759 
L 159.827322 268.077457 
L 167.560966 271.787768 
L 175.294611 275.264693 
L 183.028255 278.508232 
L 190.761899 281.518385 
L 198.495543 284.295151 
L 206.229187 286.838531 
L 213.962831 289.148525 
L 221.696475 291.225132 
L 229.430119 293.068354 
L 237.163764 294.678189 
L 244.897408 296.054637 
L 252.631052 297.1977 
L 260.364696 298.107376 
L 268.09834 298.783665 
L 275.831984 299.226569 
L 283.565628 299.436086 
L 291.299272 299.412217 
L 299.032916 299.154962 
L 306.766561 298.66432 
L 314.500205 297.940292 
L 322.233849 296.982878 
L 329.967493 295.792078 
L 337.701137 294.367891 
L 345.434781 292.710318 
L 353.168425 290.819359 
L 360.902069 288.695013 
L 368.635714 286.337281 
L 376.369358 283.746163 
L 384.103002 280.921659 
L 391.836646 277.863768 
L 399.57029 274.572491 
L 407.303934 271.047828 
L 415.037578 267.289778 
L 422.771222 263.298342 
L 430.504867 259.07352 
L 438.941569 254.198447 
L 444.566038 250.794094 
L 444.566038 250.794094 
" clip-path="url(#pef2fa6a444)" style="fill: none; stroke: #1f77b4; stroke-width: 2; stroke-linecap: square"/>
   </g>
   <g id="line2d_2">
    <path d="M 23.433962 294.881298 
L 51.556305 293.791776 
L 76.866413 292.590936 
L 100.067345 291.267711 
L 121.159102 289.844639 
L 140.844741 288.294086 
L 159.124264 286.631099 
L 175.997669 284.876904 
L 192.168016 282.971037 
L 206.932246 281.014081 
L 220.993417 278.934707 
L 234.351529 276.742518 
L 247.006583 274.450068 
L 259.661637 271.926229 
L 271.613633 269.30912 
L 282.86257 266.619087 
L 293.408448 263.879567 
L 303.954326 260.911484 
L 313.797146 257.918259 
L 323.639966 254.692583 
L 332.779727 251.473415 
L 341.919488 248.022733 
L 351.05925 244.323887 
L 359.495952 240.673889 
L 367.932655 236.782239 
L 376.369358 232.632937 
L 384.103002 228.58852 
L 391.836646 224.299314 
L 399.57029 219.7505 
L 407.303934 214.926368 
L 414.33452 210.287875 
L 421.365105 205.394845 
L 428.395691 200.23331 
L 435.426276 194.788535 
L 442.456862 189.044977 
L 444.566038 187.261219 
L 444.566038 187.261219 
" clip-path="url(#pef2fa6a444)" style="fill: none; stroke: #ff7f0e; stroke-width: 2; stroke-linecap: square"/>
   </g>
   <g id="line2d_3">
    <path d="M 23.433962 24.545455 
L 31.167606 39.92145 
L 38.901251 54.813919 
L 46.634895 69.221848 
L 54.368539 83.144162 
L 62.102183 96.57972 
L 69.132768 108.370456 
L 76.163354 119.756955 
L 83.19394 130.738202 
L 90.224525 141.313129 
L 97.255111 151.480607 
L 104.285696 161.239447 
L 111.316282 170.588392 
L 117.643809 178.650891 
L 123.971336 186.379288 
L 130.298863 193.772518 
L 136.62639 200.829463 
L 142.953917 207.54895 
L 149.281444 213.929748 
L 155.608971 219.970565 
L 161.233439 225.053671 
L 166.857908 229.866084 
L 172.482376 234.406765 
L 178.106845 238.67463 
L 183.731313 242.668546 
L 189.355782 246.387332 
L 194.98025 249.829754 
L 200.604719 252.994526 
L 206.229187 255.880304 
L 211.853655 258.485686 
L 216.775065 260.534235 
L 221.696475 262.365966 
L 226.617885 263.979821 
L 231.539295 265.374701 
L 236.460705 266.549463 
L 241.382115 267.502924 
L 246.303525 268.233853 
L 251.224935 268.740974 
L 256.146345 269.02296 
L 261.067754 269.078437 
L 265.989164 268.905975 
L 270.910574 268.504093 
L 275.831984 267.87125 
L 280.753394 267.005849 
L 285.674804 265.90623 
L 290.596214 264.570673 
L 295.517624 262.997389 
L 300.439034 261.184522 
L 305.360444 259.130147 
L 310.281853 256.832262 
L 315.203263 254.288793 
L 320.124673 251.497583 
L 325.046083 248.456396 
L 329.967493 245.162908 
L 334.888903 241.61471 
L 339.810313 237.809297 
L 344.731723 233.744072 
L 349.653133 229.416338 
L 354.574542 224.823293 
L 360.199011 219.245497 
L 365.823479 213.312856 
L 371.447948 207.020657 
L 377.072416 200.363981 
L 382.696885 193.337693 
L 388.321353 185.936435 
L 393.945822 178.154613 
L 399.57029 169.986391 
L 405.194759 161.425678 
L 410.819227 152.466114 
L 416.443695 143.101067 
L 422.068164 133.323609 
L 427.692632 123.126514 
L 433.317101 112.502239 
L 438.941569 101.442912 
L 444.566038 89.940316 
L 444.566038 89.940316 
" clip-path="url(#pef2fa6a444)" style="fill: none; stroke: #2ca02c; stroke-width: 2; stroke-linecap: square"/>
   </g>
   <g id="line2d_4">
    <path d="M 10.8 299.454545 
L 457.2 299.454545 
" style="fill: none; stroke: #000000; stroke-width: 1.5; stroke-linecap: square"/>
   </g>
   <g id="line2d_5">
    <path d="M 286.641509 313.2 
L 286.641509 10.8 
" style="fill: none; stroke: #000000; stroke-width: 1.5; stroke-linecap: square"/>
   </g>
   <g id="legend_1">
    <g id="line2d_6">
     <path d="M 298.512 31.824 
L 312.912 31.824 
L 327.312 31.824 
" style="fill: none; stroke: #1f77b4; stroke-width: 2; stroke-linecap: square"/>
    </g>
    <g id="text_1">
     <!-- $f_1(x)=x^{2}$ -->
     <g transform="translate(338.832 36.864) scale(0.144 -0.144)">
      <defs>
       <path id="DejaVuSans-Oblique-66" d="M 3059 4863 
L 2969 4384 
L 2419 4384 
Q 2106 4384 1964 4261 
Q 1822 4138 1753 3809 
L 1691 3500 
L 2638 3500 
L 2553 3053 
L 1606 3053 
L 1013 0 
L 434 0 
L 1031 3053 
L 481 3053 
L 563 3500 
L 1113 3500 
L 1159 3744 
Q 1278 4363 1576 4613 
Q 1875 4863 2516 4863 
L 3059 4863 
z
" transform="scale(0.015625)"/>
       <path id="DejaVuSans-31" d="M 794 531 
L 1825 531 
L 1825 4091 
L 703 3866 
L 703 4441 
L 1819 4666 
L 2450 4666 
L 2450 531 
L 3481 531 
L 3481 0 
L 794 0 
L 794 531 
z
" transform="scale(0.015625)"/>
       <path id="DejaVuSans-28" d="M 1984 4856 
Q 1566 4138 1362 3434 
Q 1159 2731 1159 2009 
Q 1159 1288 1364 580 
Q 1569 -128 1984 -844 
L 1484 -844 
Q 1016 -109 783 600 
Q 550 1309 550 2009 
Q 550 2706 781 3412 
Q 1013 4119 1484 4856 
L 1984 4856 
z
" transform="scale(0.015625)"/>
       <path id="DejaVuSans-Oblique-78" d="M 3841 3500 
L 2234 1784 
L 3219 0 
L 2559 0 
L 1819 1388 
L 531 0 
L -166 0 
L 1556 1844 
L 641 3500 
L 1300 3500 
L 1972 2234 
L 3144 3500 
L 3841 3500 
z
" transform="scale(0.015625)"/>
       <path id="DejaVuSans-29" d="M 513 4856 
L 1013 4856 
Q 1481 4119 1714 3412 
Q 1947 2706 1947 2009 
Q 1947 1309 1714 600 
Q 1481 -109 1013 -844 
L 513 -844 
Q 928 -128 1133 580 
Q 1338 1288 1338 2009 
Q 1338 2731 1133 3434 
Q 928 4138 513 4856 
z
" transform="scale(0.015625)"/>
       <path id="DejaVuSans-3d" d="M 678 2906 
L 4684 2906 
L 4684 2381 
L 678 2381 
L 678 2906 
z
M 678 1631 
L 4684 1631 
L 4684 1100 
L 678 1100 
L 678 1631 
z
" transform="scale(0.015625)"/>
       <path id="DejaVuSans-32" d="M 1228 531 
L 3431 531 
L 3431 0 
L 469 0 
L 469 531 
Q 828 903 1448 1529 
Q 2069 2156 2228 2338 
Q 2531 2678 2651 2914 
Q 2772 3150 2772 3378 
Q 2772 3750 2511 3984 
Q 2250 4219 1831 4219 
Q 1534 4219 1204 4116 
Q 875 4013 500 3803 
L 500 4441 
Q 881 4594 1212 4672 
Q 1544 4750 1819 4750 
Q 2544 4750 2975 4387 
Q 3406 4025 3406 3419 
Q 3406 3131 3298 2873 
Q 3191 2616 2906 2266 
Q 2828 2175 2409 1742 
Q 1991 1309 1228 531 
z
" transform="scale(0.015625)"/>
      </defs>
      <use xlink:href="#DejaVuSans-Oblique-66" transform="translate(0 0.765625)"/>
      <use xlink:href="#DejaVuSans-31" transform="translate(35.205078 -15.640625) scale(0.7)"/>
      <use xlink:href="#DejaVuSans-28" transform="translate(82.475586 0.765625)"/>
      <use xlink:href="#DejaVuSans-Oblique-78" transform="translate(121.489258 0.765625)"/>
      <use xlink:href="#DejaVuSans-29" transform="translate(180.668945 0.765625)"/>
      <use xlink:href="#DejaVuSans-3d" transform="translate(239.165039 0.765625)"/>
      <use xlink:href="#DejaVuSans-Oblique-78" transform="translate(342.436523 0.765625)"/>
      <use xlink:href="#DejaVuSans-32" transform="translate(406.082357 39.046875) scale(0.7)"/>
     </g>
    </g>
    <g id="line2d_7">
     <path d="M 298.512 52.56 
L 312.912 52.56 
L 327.312 52.56 
" style="fill: none; stroke: #ff7f0e; stroke-width: 2; stroke-linecap: square"/>
    </g>
    <g id="text_2">
     <!-- $f_2(x)=e^{x}$ -->
     <g transform="translate(338.832 57.6) scale(0.144 -0.144)">
      <defs>
       <path id="DejaVuSans-Oblique-65" d="M 3078 2063 
Q 3088 2113 3092 2166 
Q 3097 2219 3097 2272 
Q 3097 2653 2873 2875 
Q 2650 3097 2266 3097 
Q 1838 3097 1509 2826 
Q 1181 2556 1013 2059 
L 3078 2063 
z
M 3578 1613 
L 903 1613 
Q 884 1494 878 1425 
Q 872 1356 872 1306 
Q 872 872 1139 634 
Q 1406 397 1894 397 
Q 2269 397 2603 481 
Q 2938 566 3225 728 
L 3116 159 
Q 2806 34 2476 -28 
Q 2147 -91 1806 -91 
Q 1078 -91 686 257 
Q 294 606 294 1247 
Q 294 1794 489 2264 
Q 684 2734 1063 3103 
Q 1306 3334 1642 3459 
Q 1978 3584 2356 3584 
Q 2950 3584 3301 3228 
Q 3653 2872 3653 2272 
Q 3653 2128 3634 1964 
Q 3616 1800 3578 1613 
z
" transform="scale(0.015625)"/>
      </defs>
      <use xlink:href="#DejaVuSans-Oblique-66" transform="translate(0 0.4375)"/>
      <use xlink:href="#DejaVuSans-32" transform="translate(35.205078 -15.96875) scale(0.7)"/>
      <use xlink:href="#DejaVuSans-28" transform="translate(82.475586 0.4375)"/>
      <use xlink:href="#DejaVuSans-Oblique-78" transform="translate(121.489258 0.4375)"/>
      <use xlink:href="#DejaVuSans-29" transform="translate(180.668945 0.4375)"/>
      <use xlink:href="#DejaVuSans-3d" transform="translate(239.165039 0.4375)"/>
      <use xlink:href="#DejaVuSans-Oblique-65" transform="translate(342.436523 0.4375)"/>
      <use xlink:href="#DejaVuSans-Oblique-78" transform="translate(408.609857 38.71875) scale(0.7)"/>
     </g>
    </g>
    <g id="line2d_8">
     <path d="M 298.512 75.312 
L 312.912 75.312 
L 327.312 75.312 
" style="fill: none; stroke: #2ca02c; stroke-width: 2; stroke-linecap: square"/>
    </g>
    <g id="text_3">
     <!-- $g(x)=2x^{2}+e^{x}$ -->
     <g transform="translate(338.832 80.352) scale(0.144 -0.144)">
      <defs>
       <path id="DejaVuSans-Oblique-67" d="M 3816 3500 
L 3219 434 
Q 3047 -456 2561 -893 
Q 2075 -1331 1253 -1331 
Q 950 -1331 690 -1286 
Q 431 -1241 206 -1147 
L 313 -588 
Q 525 -725 762 -790 
Q 1000 -856 1269 -856 
Q 1816 -856 2167 -557 
Q 2519 -259 2631 300 
L 2681 563 
Q 2441 288 2122 144 
Q 1803 0 1434 0 
Q 903 0 598 351 
Q 294 703 294 1319 
Q 294 1803 478 2267 
Q 663 2731 997 3091 
Q 1219 3328 1514 3456 
Q 1809 3584 2131 3584 
Q 2484 3584 2746 3420 
Q 3009 3256 3138 2956 
L 3238 3500 
L 3816 3500 
z
M 2950 2216 
Q 2950 2641 2750 2872 
Q 2550 3103 2181 3103 
Q 1953 3103 1747 3012 
Q 1541 2922 1394 2759 
Q 1156 2491 1023 2127 
Q 891 1763 891 1375 
Q 891 944 1092 712 
Q 1294 481 1672 481 
Q 2219 481 2584 976 
Q 2950 1472 2950 2216 
z
" transform="scale(0.015625)"/>
       <path id="DejaVuSans-2b" d="M 2944 4013 
L 2944 2272 
L 4684 2272 
L 4684 1741 
L 2944 1741 
L 2944 0 
L 2419 0 
L 2419 1741 
L 678 1741 
L 678 2272 
L 2419 2272 
L 2419 4013 
L 2944 4013 
z
" transform="scale(0.015625)"/>
      </defs>
      <use xlink:href="#DejaVuSans-Oblique-67" transform="translate(0 0.765625)"/>
      <use xlink:href="#DejaVuSans-28" transform="translate(63.476562 0.765625)"/>
      <use xlink:href="#DejaVuSans-Oblique-78" transform="translate(102.490234 0.765625)"/>
      <use xlink:href="#DejaVuSans-29" transform="translate(161.669922 0.765625)"/>
      <use xlink:href="#DejaVuSans-3d" transform="translate(220.166016 0.765625)"/>
      <use xlink:href="#DejaVuSans-32" transform="translate(323.4375 0.765625)"/>
      <use xlink:href="#DejaVuSans-Oblique-78" transform="translate(387.060547 0.765625)"/>
      <use xlink:href="#DejaVuSans-32" transform="translate(450.70638 39.046875) scale(0.7)"/>
      <use xlink:href="#DejaVuSans-2b" transform="translate(517.45931 0.765625)"/>
      <use xlink:href="#DejaVuSans-Oblique-65" transform="translate(620.730794 0.765625)"/>
      <use xlink:href="#DejaVuSans-Oblique-78" transform="translate(686.904128 39.046875) scale(0.7)"/>
     </g>
    </g>
   </g>
  </g>
 </g>
 <defs>
  <clipPath id="pef2fa6a444">
   <rect x="10.8" y="10.8" width="446.4" height="302.4"/>
  </clipPath>
 </defs>
</svg>
