<?xml version="1.0" encoding="utf-8" standalone="no"?>
<!DOCTYPE svg PUBLIC "-//W3C//DTD SVG 1.1//EN"
  "http://www.w3.org/Graphics/SVG/1.1/DTD/svg11.dtd">
<svg xmlns:xlink="http://www.w3.org/1999/xlink" width="288pt" height="432pt" viewBox="0 0 288 432" xmlns="http://www.w3.org/2000/svg" version="1.1">
 <metadata>
  <rdf:RDF xmlns:dc="http://purl.org/dc/elements/1.1/" xmlns:cc="http://creativecommons.org/ns#" xmlns:rdf="http://www.w3.org/1999/02/22-rdf-syntax-ns#">
   <cc:Work>
    <dc:type rdf:resource="http://purl.org/dc/dcmitype/StillImage"/>
    <dc:date>2025-10-12T19:11:55.573027</dc:date>
    <dc:format>image/svg+xml</dc:format>
    <dc:creator>
     <cc:Agent>
      <dc:title>Matplotlib v3.9.2, https://matplotlib.org/</dc:title>
     </cc:Agent>
    </dc:creator>
   </cc:Work>
  </rdf:RDF>
 </metadata>
 <defs>
  <style type="text/css">*{stroke-linejoin: round; stroke-linecap: butt}</style>
 </defs>
 <g id="figure_1">
  <g id="patch_1">
   <path d="M 0 432 
L 288 432 
L 288 0 
L 0 0 
z
" style="fill: #ffffff"/>
  </g>
  <g id="axes_1">
   <g id="patch_2">
    <path d="M 10.8 382.207534 
L 276.732054 382.207534 
L 276.732054 49.792466 
L 10.8 49.792466 
z
" style="fill: #ffffff"/>
   </g>
   <g id="matplotlib.axis_1">
    <g id="xtick_1"/>
    <g id="xtick_2"/>
    <g id="xtick_3"/>
    <g id="xtick_4"/>
    <g id="xtick_5"/>
   </g>
   <g id="matplotlib.axis_2">
    <g id="ytick_1"/>
    <g id="ytick_2"/>
    <g id="ytick_3"/>
    <g id="ytick_4"/>
    <g id="ytick_5"/>
    <g id="ytick_6"/>
   </g>
   <g id="line2d_1">
    <path d="M 10.8 368.492123 
L 28.369085 366.057414 
L 44.074782 363.661736 
L 57.917091 361.331583 
L 70.16221 359.051051 
L 81.076339 356.793997 
L 90.393277 354.649374 
L 98.645423 352.529968 
L 105.832776 350.461641 
L 111.955336 348.482077 
L 117.279301 346.54196 
L 122.070869 344.558731 
L 126.063843 342.668562 
L 129.524421 340.784081 
L 132.452601 338.933275 
L 134.848386 337.163485 
L 136.977972 335.299542 
L 138.575161 333.625099 
L 139.906152 331.941807 
L 140.970945 330.287558 
L 141.76954 328.742471 
L 142.568135 326.704285 
L 143.100531 324.750663 
L 143.36673 323.337464 
L 143.632928 321.003041 
L 143.899126 310.446 
L 144.431523 306.698377 
L 144.963919 304.744755 
L 145.762514 302.70657 
L 146.827307 300.71311 
L 148.158298 298.793485 
L 149.755488 296.949386 
L 151.618875 295.175259 
L 153.748461 293.464138 
L 156.410444 291.639146 
L 159.338625 289.907418 
L 162.799202 288.12144 
L 166.792176 286.312316 
L 171.583744 284.399288 
L 176.907709 282.516322 
L 183.030269 280.585778 
L 190.217622 278.560672 
L 198.469768 276.478754 
L 207.786707 274.366422 
L 218.434637 272.190061 
L 230.413558 269.976476 
L 243.989669 267.70212 
L 259.162969 265.391626 
L 276.199658 263.027439 
L 276.732054 262.956917 
L 276.732054 262.956917 
" clip-path="url(#p6dd000a571)" style="fill: none; stroke: #0000ff; stroke-width: 2; stroke-linecap: square"/>
   </g>
   <g id="line2d_2">
    <path d="M 10.8 311.32722 
L 36.62123 310.646444 
L 56.053703 309.921695 
L 70.960805 309.154427 
L 82.673528 308.33945 
L 91.990467 307.47814 
L 99.444018 306.577767 
L 105.566578 305.624819 
L 110.624345 304.621779 
L 114.883517 303.555472 
L 118.344094 302.474775 
L 121.272275 301.348501 
L 123.934257 300.089243 
L 126.063843 298.859171 
L 127.927231 297.561065 
L 129.790619 295.98044 
L 131.387808 294.3166 
L 132.7188 292.629888 
L 134.049791 290.566225 
L 135.114584 288.542136 
L 136.179377 286.054817 
L 137.24417 282.907507 
L 138.042765 279.921681 
L 138.841359 276.148818 
L 139.639954 271.194252 
L 140.438549 264.327678 
L 140.970945 257.992479 
L 141.503342 249.258884 
L 142.035738 236.242748 
L 142.568135 214.161696 
L 142.834333 195.637035 
L 143.100531 165.439241 
L 143.36673 104.465331 
L 143.489768 -1 
L 143.489768 -1 
" clip-path="url(#p6dd000a571)" style="fill: none; stroke: #ff0000; stroke-width: 2; stroke-linecap: square"/>
   </g>
   <g id="line2d_3">
    <path d="M 144.042286 -1 
L 144.165324 104.465331 
L 144.431523 165.439241 
L 144.963919 214.161696 
L 145.496316 236.242748 
L 146.028712 249.258884 
L 146.561109 257.992479 
L 147.359703 266.898207 
L 148.158298 273.012136 
L 148.956893 277.51367 
L 149.755488 280.990523 
L 150.820281 284.580176 
L 151.885074 287.366458 
L 152.949867 289.603084 
L 154.280858 291.856757 
L 155.611849 293.679875 
L 157.209039 295.462526 
L 158.806228 296.92367 
L 160.669616 298.332076 
L 162.799202 299.654895 
L 165.194986 300.876136 
L 167.856969 301.991142 
L 171.051348 303.085099 
L 174.778123 304.119146 
L 179.303494 305.12656 
L 184.627459 306.068366 
L 191.016217 306.959676 
L 198.735966 307.800789 
L 208.052905 308.586162 
L 219.765628 309.339842 
L 234.406532 310.047353 
L 253.04041 310.712636 
L 276.732054 311.32722 
L 276.732054 311.32722 
" clip-path="url(#p6dd000a571)" style="fill: none; stroke: #ff0000; stroke-width: 2; stroke-linecap: square"/>
   </g>
   <g id="line2d_4">
    <path d="M 10.8 315.72452 
L 276.732054 315.72452 
" clip-path="url(#p6dd000a571)" style="fill: none; stroke: #000000; stroke-width: 0.5; stroke-linecap: square"/>
   </g>
   <g id="line2d_5">
    <path d="M 143.766027 382.207534 
L 143.766027 49.792466 
" clip-path="url(#p6dd000a571)" style="fill: none; stroke: #000000; stroke-width: 0.5; stroke-linecap: square"/>
   </g>
   <g id="text_1">
    <g id="patch_3">
     <path d="M 210.249041 262.895933 
L 264.849041 262.895933 
Q 268.209041 262.895933 268.209041 259.535933 
L 268.209041 240.047933 
Q 268.209041 236.687933 264.849041 236.687933 
L 210.249041 236.687933 
Q 206.889041 236.687933 206.889041 240.047933 
L 206.889041 259.535933 
Q 206.889041 262.895933 210.249041 262.895933 
z
" style="fill: #ffffff; opacity: 0.7"/>
    </g>
    <!-- $f(x) = x^{\frac{1}{3}}$ -->
    <g style="fill: #0000ff" transform="translate(210.249041 255.889808) scale(0.168 -0.168)">
     <defs>
      <path id="STIXGeneral-Italic-66" d="M 262 2739 
L 858 2739 
Q 1107 3546 1318 3846 
Q 1664 4339 2163 4339 
Q 2400 4339 2557 4227 
Q 2714 4115 2714 3942 
Q 2714 3834 2634 3750 
Q 2554 3667 2445 3667 
Q 2355 3667 2281 3737 
Q 2208 3808 2208 3917 
Q 2208 3981 2240 4038 
Q 2272 4096 2272 4115 
Q 2272 4198 2131 4198 
Q 1862 4198 1676 3849 
Q 1491 3501 1350 2739 
L 2035 2739 
L 1997 2534 
L 1306 2534 
L 845 486 
Q 435 -1325 -435 -1325 
Q -653 -1325 -797 -1213 
Q -941 -1101 -941 -934 
Q -941 -826 -870 -746 
Q -800 -666 -698 -666 
Q -589 -666 -521 -733 
Q -454 -800 -454 -902 
Q -454 -947 -483 -1001 
Q -512 -1056 -512 -1088 
Q -512 -1190 -384 -1190 
Q 13 -1190 237 -154 
L 800 2534 
L 218 2534 
L 262 2739 
z
" transform="scale(0.015625)"/>
      <path id="STIXGeneral-Regular-28" d="M 1946 -1030 
L 1869 -1133 
Q 1126 -710 716 32 
Q 307 774 307 1613 
Q 307 3386 1888 4326 
L 1946 4224 
Q 1293 3667 1075 3126 
Q 858 2586 858 1632 
Q 858 685 1082 96 
Q 1306 -493 1946 -1030 
z
" transform="scale(0.015625)"/>
      <path id="STIXGeneral-Italic-78" d="M 1555 2272 
L 1632 1907 
Q 1971 2426 2179 2624 
Q 2387 2822 2598 2822 
Q 2714 2822 2787 2755 
Q 2861 2688 2861 2585 
Q 2861 2483 2800 2419 
Q 2739 2355 2643 2355 
Q 2586 2355 2490 2409 
Q 2394 2464 2310 2464 
Q 2125 2464 1683 1690 
Q 1683 1606 1734 1402 
L 1939 544 
Q 2003 282 2131 282 
Q 2234 282 2432 538 
Q 2451 563 2476 598 
Q 2502 634 2521 662 
Q 2541 691 2566 717 
L 2662 659 
Q 2387 230 2227 80 
Q 2067 -70 1882 -70 
Q 1728 -70 1645 26 
Q 1562 122 1504 365 
L 1318 1126 
L 755 365 
Q 557 96 432 13 
Q 307 -70 147 -70 
Q 0 -70 -86 0 
Q -173 70 -173 198 
Q -173 294 -112 361 
Q -51 429 45 429 
Q 122 429 250 358 
Q 346 301 416 301 
Q 525 301 742 614 
L 1267 1357 
L 1088 2150 
Q 1024 2432 969 2509 
Q 915 2586 794 2586 
Q 717 2586 544 2541 
L 429 2509 
L 410 2611 
L 480 2637 
Q 992 2822 1229 2822 
Q 1350 2822 1420 2707 
Q 1491 2592 1555 2272 
z
" transform="scale(0.015625)"/>
      <path id="STIXGeneral-Regular-29" d="M 186 4224 
L 262 4326 
Q 992 3891 1408 3148 
Q 1824 2406 1824 1581 
Q 1824 -166 243 -1133 
L 186 -1030 
Q 845 -486 1059 54 
Q 1274 595 1274 1562 
Q 1274 2534 1059 3120 
Q 845 3706 186 4224 
z
" transform="scale(0.015625)"/>
      <path id="STIXGeneral-Regular-3d" d="M 4077 2048 
L 307 2048 
L 307 2470 
L 4077 2470 
L 4077 2048 
z
M 4077 768 
L 307 768 
L 307 1190 
L 4077 1190 
L 4077 768 
z
" transform="scale(0.015625)"/>
      <path id="STIXGeneral-Regular-31" d="M 2522 0 
L 755 0 
L 755 96 
Q 1107 115 1235 227 
Q 1363 339 1363 608 
L 1363 3482 
Q 1363 3795 1171 3795 
Q 1082 3795 883 3718 
L 710 3654 
L 710 3744 
L 1856 4326 
L 1914 4307 
L 1914 486 
Q 1914 275 2042 185 
Q 2170 96 2522 96 
L 2522 0 
z
" transform="scale(0.015625)"/>
      <path id="STIXGeneral-Regular-33" d="M 390 3264 
L 288 3290 
Q 435 3770 748 4048 
Q 1062 4326 1542 4326 
Q 1990 4326 2265 4083 
Q 2541 3840 2541 3450 
Q 2541 2925 1946 2566 
Q 2298 2413 2477 2227 
Q 2758 1914 2758 1402 
Q 2758 890 2464 506 
Q 2246 211 1840 60 
Q 1434 -90 979 -90 
Q 262 -90 262 275 
Q 262 378 339 442 
Q 416 506 525 506 
Q 685 506 915 339 
Q 1197 141 1466 141 
Q 1818 141 2058 425 
Q 2298 710 2298 1120 
Q 2298 1856 1632 2048 
Q 1434 2112 979 2112 
L 979 2202 
Q 1338 2323 1517 2432 
Q 2035 2726 2035 3290 
Q 2035 3610 1852 3776 
Q 1670 3942 1344 3942 
Q 768 3942 390 3264 
z
" transform="scale(0.015625)"/>
     </defs>
     <use xlink:href="#STIXGeneral-Italic-66" transform="translate(0 0.14625)"/>
     <use xlink:href="#STIXGeneral-Regular-28" transform="translate(27.799988 0.14625)"/>
     <use xlink:href="#STIXGeneral-Italic-78" transform="translate(61.099976 0.14625)"/>
     <use xlink:href="#STIXGeneral-Regular-29" transform="translate(105.499969 0.14625)"/>
     <use xlink:href="#STIXGeneral-Regular-3d" transform="translate(153.239954 0.14625)"/>
     <use xlink:href="#STIXGeneral-Italic-78" transform="translate(236.179935 0.14625)"/>
     <use xlink:href="#STIXGeneral-Regular-31" transform="translate(286.753054 61.879063) scale(0.49)"/>
     <use xlink:href="#STIXGeneral-Regular-33" transform="translate(286.753054 6.883125) scale(0.49)"/>
     <path d="M 286.753054 44.379063 
L 286.753054 48.754063 
L 311.253046 48.754063 
L 311.253046 44.379063 
L 286.753054 44.379063 
z
"/>
    </g>
   </g>
  </g>
 </g>
 <defs>
  <clipPath id="p6dd000a571">
   <rect x="10.8" y="49.792466" width="265.932054" height="332.415068"/>
  </clipPath>
 </defs>
</svg>
